<svg width="12" height="12" viewBox="0 0 12 12" fill="none" xmlns="http://www.w3.org/2000/svg">
<path d="M10.2741 2.17414H8.89913V1.71581C8.89913 1.59425 8.85084 1.47767 8.76489 1.39172C8.67893 1.30577 8.56235 1.25748 8.4408 1.25748H3.85746C3.7359 1.25748 3.61933 1.30577 3.53337 1.39172C3.44742 1.47767 3.39913 1.59425 3.39913 1.71581V2.17414H2.02413C1.90257 2.17414 1.78599 2.22243 1.70004 2.30839C1.61408 2.39434 1.5658 2.51092 1.5658 2.63248V4.00748C1.5658 4.49371 1.75895 4.96002 2.10277 5.30384C2.44658 5.64766 2.9129 5.84081 3.39913 5.84081H4.10496C4.51954 6.30333 5.07849 6.61189 5.6908 6.71623V7.67414H5.23246C4.86779 7.67414 4.51805 7.81901 4.26019 8.07687C4.00233 8.33473 3.85746 8.68447 3.85746 9.04914V9.96581C3.85746 10.0874 3.90575 10.2039 3.99171 10.2899C4.07766 10.3759 4.19424 10.4241 4.3158 10.4241H7.98246C8.10402 10.4241 8.2206 10.3759 8.30655 10.2899C8.39251 10.2039 8.4408 10.0874 8.4408 9.96581V9.04914C8.4408 8.68447 8.29593 8.33473 8.03807 8.07687C7.78021 7.81901 7.43047 7.67414 7.0658 7.67414H6.60746V6.71623C7.21977 6.61189 7.77872 6.30333 8.1933 5.84081H8.89913C9.38536 5.84081 9.85167 5.64766 10.1955 5.30384C10.5393 4.96002 10.7325 4.49371 10.7325 4.00748V2.63248C10.7325 2.51092 10.6842 2.39434 10.5982 2.30839C10.5123 2.22243 10.3957 2.17414 10.2741 2.17414V2.17414ZM3.39913 4.92414C3.15601 4.92414 2.92286 4.82757 2.75095 4.65566C2.57904 4.48375 2.48246 4.25059 2.48246 4.00748V3.09081H3.39913V4.00748C3.40014 4.31993 3.45439 4.62992 3.55955 4.92414H3.39913ZM7.0658 8.59081C7.18735 8.59081 7.30393 8.6391 7.38989 8.72505C7.47584 8.81101 7.52413 8.92759 7.52413 9.04914V9.50748H4.77413V9.04914C4.77413 8.92759 4.82242 8.81101 4.90837 8.72505C4.99433 8.6391 5.1109 8.59081 5.23246 8.59081H7.0658ZM7.98246 4.00748C7.98246 4.49371 7.78931 4.96002 7.44549 5.30384C7.10167 5.64766 6.63536 5.84081 6.14913 5.84081C5.6629 5.84081 5.19658 5.64766 4.85277 5.30384C4.50895 4.96002 4.3158 4.49371 4.3158 4.00748V2.17414H7.98246V4.00748ZM9.8158 4.00748C9.8158 4.25059 9.71922 4.48375 9.54731 4.65566C9.3754 4.82757 9.14224 4.92414 8.89913 4.92414H8.73871C8.84387 4.62992 8.89812 4.31993 8.89913 4.00748V3.09081H9.8158V4.00748Z" fill="url(#paint0_linear_13_544)"/>
<defs>
<linearGradient id="paint0_linear_13_544" x1="6.14913" y1="1.25748" x2="6.14913" y2="10.4241" gradientUnits="userSpaceOnUse">
<stop stop-color="#6688FF"/>
<stop offset="1" stop-color="#66B4FF"/>
</linearGradient>
</defs>
</svg>
