<svg width="48" height="48" viewBox="0 0 48 48" fill="none" xmlns="http://www.w3.org/2000/svg">
<path d="M45.2114 24.2998C45.2114 36.0084 35.7198 45.5 24.0112 45.5C12.3027 45.5 2.81104 36.0084 2.81104 24.2998C2.81104 12.5913 12.3027 3.09961 24.0112 3.09961C35.7198 3.09961 45.2114 12.5913 45.2114 24.2998Z" stroke="url(#paint0_linear_13_508)" stroke-width="5"/>
<path fill-rule="evenodd" clip-rule="evenodd" d="M35.0182 29.8784C35.0182 30.1043 34.8965 30.226 34.6358 30.226H30.2911C30.0478 30.226 29.9261 30.1043 29.9261 29.8784V23.7262L23.9651 29.8784C23.7045 30.1565 23.3916 30.226 23.1136 30.226H22.2968C22.0187 30.226 21.7059 30.1565 21.4104 29.8784L14.9802 23.7262V23.7419L12.999 21.8489V18.7385C12.999 18.4952 13.1207 18.3735 13.3466 18.3735H14.5284C14.8412 18.3735 15.154 18.4952 15.4321 18.7559L23.8435 27.1499L32.672 18.7559C32.9674 18.4778 33.315 18.3735 33.6626 18.3735H34.6358C34.8965 18.3735 35.0182 18.4952 35.0182 18.7385V29.8784ZM12.999 24.6426V29.8784C12.999 30.1043 13.1033 30.226 13.3466 30.226H14.6326C14.8586 30.226 14.9802 30.1043 14.9802 29.8784V26.5355L12.999 24.6426Z" fill="url(#paint1_linear_13_508)"/>
<defs>
<linearGradient id="paint0_linear_13_508" x1="24.0112" y1="0.599609" x2="24.0112" y2="48" gradientUnits="userSpaceOnUse">
<stop stop-color="#666CFF"/>
<stop offset="1" stop-color="#66E1FF"/>
</linearGradient>
<linearGradient id="paint1_linear_13_508" x1="24.0086" y1="18.3735" x2="24.0086" y2="30.226" gradientUnits="userSpaceOnUse">
<stop stop-color="#666BFF"/>
<stop offset="1" stop-color="#66B5FF"/>
</linearGradient>
</defs>
</svg>
